# Tiled2Unity generated file. Do not modify by hand.
# Wavefront file for 'MidtermMap_mesh_0003.obj'

# Vertices (Count = 1048)
v -50 -76 0
v -51 -76 0
v -51 -75 0
v -50 -75 0
v -51 -76 0
v -52 -76 0
v -52 -75 0
v -51 -75 0
v -52 -76 0
v -53 -76 0
v -53 -75 0
v -52 -75 0
v -53 -76 0
v -54 -76 0
v -54 -75 0
v -53 -75 0
v -54 -76 0
v -55 -76 0
v -55 -75 0
v -54 -75 0
v -55 -76 0
v -56 -76 0
v -56 -75 0
v -55 -75 0
v -56 -76 0
v -57 -76 0
v -57 -75 0
v -56 -75 0
v -57 -76 0
v -58 -76 0
v -58 -75 0
v -57 -75 0
v -58 -76 0
v -59 -76 0
v -59 -75 0
v -58 -75 0
v -59 -76 0
v -60 -76 0
v -60 -75 0
v -59 -75 0
v -60 -76 0
v -61 -76 0
v -61 -75 0
v -60 -75 0
v -61 -76 0
v -62 -76 0
v -62 -75 0
v -61 -75 0
v -62 -76 0
v -63 -76 0
v -63 -75 0
v -62 -75 0
v -63 -76 0
v -64 -76 0
v -64 -75 0
v -63 -75 0
v -64 -76 0
v -65 -76 0
v -65 -75 0
v -64 -75 0
v -65 -76 0
v -66 -76 0
v -66 -75 0
v -65 -75 0
v 0 -77 0
v -1 -77 0
v -1 -76 0
v 0 -76 0
v -50 -77 0
v -51 -77 0
v -51 -76 0
v -50 -76 0
v -51 -77 0
v -52 -77 0
v -52 -76 0
v -51 -76 0
v -52 -77 0
v -53 -77 0
v -53 -76 0
v -52 -76 0
v -53 -77 0
v -54 -77 0
v -54 -76 0
v -53 -76 0
v -54 -77 0
v -55 -77 0
v -55 -76 0
v -54 -76 0
v -55 -77 0
v -56 -77 0
v -56 -76 0
v -55 -76 0
v -56 -77 0
v -57 -77 0
v -57 -76 0
v -56 -76 0
v -57 -77 0
v -58 -77 0
v -58 -76 0
v -57 -76 0
v -58 -77 0
v -59 -77 0
v -59 -76 0
v -58 -76 0
v -59 -77 0
v -60 -77 0
v -60 -76 0
v -59 -76 0
v -60 -77 0
v -61 -77 0
v -61 -76 0
v -60 -76 0
v -61 -77 0
v -62 -77 0
v -62 -76 0
v -61 -76 0
v -62 -77 0
v -63 -77 0
v -63 -76 0
v -62 -76 0
v -63 -77 0
v -64 -77 0
v -64 -76 0
v -63 -76 0
v -64 -77 0
v -65 -77 0
v -65 -76 0
v -64 -76 0
v -65 -77 0
v -66 -77 0
v -66 -76 0
v -65 -76 0
v 0 -78 0
v -1 -78 0
v -1 -77 0
v 0 -77 0
v -1 -78 0
v -2 -78 0
v -2 -77 0
v -1 -77 0
v -2 -78 0
v -3 -78 0
v -3 -77 0
v -2 -77 0
v -3 -78 0
v -4 -78 0
v -4 -77 0
v -3 -77 0
v -4 -78 0
v -5 -78 0
v -5 -77 0
v -4 -77 0
v -5 -78 0
v -6 -78 0
v -6 -77 0
v -5 -77 0
v -6 -78 0
v -7 -78 0
v -7 -77 0
v -6 -77 0
v -7 -78 0
v -8 -78 0
v -8 -77 0
v -7 -77 0
v -8 -78 0
v -9 -78 0
v -9 -77 0
v -8 -77 0
v -9 -78 0
v -10 -78 0
v -10 -77 0
v -9 -77 0
v -10 -78 0
v -11 -78 0
v -11 -77 0
v -10 -77 0
v -11 -78 0
v -12 -78 0
v -12 -77 0
v -11 -77 0
v -12 -78 0
v -13 -78 0
v -13 -77 0
v -12 -77 0
v -13 -78 0
v -14 -78 0
v -14 -77 0
v -13 -77 0
v -14 -78 0
v -15 -78 0
v -15 -77 0
v -14 -77 0
v -15 -78 0
v -16 -78 0
v -16 -77 0
v -15 -77 0
v -16 -78 0
v -17 -78 0
v -17 -77 0
v -16 -77 0
v -17 -78 0
v -18 -78 0
v -18 -77 0
v -17 -77 0
v -18 -78 0
v -19 -78 0
v -19 -77 0
v -18 -77 0
v -19 -78 0
v -20 -78 0
v -20 -77 0
v -19 -77 0
v -20 -78 0
v -21 -78 0
v -21 -77 0
v -20 -77 0
v -21 -78 0
v -22 -78 0
v -22 -77 0
v -21 -77 0
v -22 -78 0
v -23 -78 0
v -23 -77 0
v -22 -77 0
v -23 -78 0
v -24 -78 0
v -24 -77 0
v -23 -77 0
v -24 -78 0
v -25 -78 0
v -25 -77 0
v -24 -77 0
v -25 -78 0
v -26 -78 0
v -26 -77 0
v -25 -77 0
v -26 -78 0
v -27 -78 0
v -27 -77 0
v -26 -77 0
v -27 -78 0
v -28 -78 0
v -28 -77 0
v -27 -77 0
v -28 -78 0
v -29 -78 0
v -29 -77 0
v -28 -77 0
v -29 -78 0
v -30 -78 0
v -30 -77 0
v -29 -77 0
v -30 -78 0
v -31 -78 0
v -31 -77 0
v -30 -77 0
v -31 -78 0
v -32 -78 0
v -32 -77 0
v -31 -77 0
v -32 -78 0
v -33 -78 0
v -33 -77 0
v -32 -77 0
v -33 -78 0
v -34 -78 0
v -34 -77 0
v -33 -77 0
v -34 -78 0
v -35 -78 0
v -35 -77 0
v -34 -77 0
v -35 -78 0
v -36 -78 0
v -36 -77 0
v -35 -77 0
v -36 -78 0
v -37 -78 0
v -37 -77 0
v -36 -77 0
v -37 -78 0
v -38 -78 0
v -38 -77 0
v -37 -77 0
v -38 -78 0
v -39 -78 0
v -39 -77 0
v -38 -77 0
v -39 -78 0
v -40 -78 0
v -40 -77 0
v -39 -77 0
v -40 -78 0
v -41 -78 0
v -41 -77 0
v -40 -77 0
v -41 -78 0
v -42 -78 0
v -42 -77 0
v -41 -77 0
v -42 -78 0
v -43 -78 0
v -43 -77 0
v -42 -77 0
v -43 -78 0
v -44 -78 0
v -44 -77 0
v -43 -77 0
v -44 -78 0
v -45 -78 0
v -45 -77 0
v -44 -77 0
v -45 -78 0
v -46 -78 0
v -46 -77 0
v -45 -77 0
v -46 -78 0
v -47 -78 0
v -47 -77 0
v -46 -77 0
v -47 -78 0
v -48 -78 0
v -48 -77 0
v -47 -77 0
v 0 -79 0
v -1 -79 0
v -1 -78 0
v 0 -78 0
v -1 -79 0
v -2 -79 0
v -2 -78 0
v -1 -78 0
v -2 -79 0
v -3 -79 0
v -3 -78 0
v -2 -78 0
v -3 -79 0
v -4 -79 0
v -4 -78 0
v -3 -78 0
v -4 -79 0
v -5 -79 0
v -5 -78 0
v -4 -78 0
v -5 -79 0
v -6 -79 0
v -6 -78 0
v -5 -78 0
v -6 -79 0
v -7 -79 0
v -7 -78 0
v -6 -78 0
v -7 -79 0
v -8 -79 0
v -8 -78 0
v -7 -78 0
v -8 -79 0
v -9 -79 0
v -9 -78 0
v -8 -78 0
v -9 -79 0
v -10 -79 0
v -10 -78 0
v -9 -78 0
v -10 -79 0
v -11 -79 0
v -11 -78 0
v -10 -78 0
v -11 -79 0
v -12 -79 0
v -12 -78 0
v -11 -78 0
v -12 -79 0
v -13 -79 0
v -13 -78 0
v -12 -78 0
v -13 -79 0
v -14 -79 0
v -14 -78 0
v -13 -78 0
v -14 -79 0
v -15 -79 0
v -15 -78 0
v -14 -78 0
v -15 -79 0
v -16 -79 0
v -16 -78 0
v -15 -78 0
v -16 -79 0
v -17 -79 0
v -17 -78 0
v -16 -78 0
v -17 -79 0
v -18 -79 0
v -18 -78 0
v -17 -78 0
v -18 -79 0
v -19 -79 0
v -19 -78 0
v -18 -78 0
v -19 -79 0
v -20 -79 0
v -20 -78 0
v -19 -78 0
v -20 -79 0
v -21 -79 0
v -21 -78 0
v -20 -78 0
v -21 -79 0
v -22 -79 0
v -22 -78 0
v -21 -78 0
v -22 -79 0
v -23 -79 0
v -23 -78 0
v -22 -78 0
v -23 -79 0
v -24 -79 0
v -24 -78 0
v -23 -78 0
v -24 -79 0
v -25 -79 0
v -25 -78 0
v -24 -78 0
v -25 -79 0
v -26 -79 0
v -26 -78 0
v -25 -78 0
v -26 -79 0
v -27 -79 0
v -27 -78 0
v -26 -78 0
v -27 -79 0
v -28 -79 0
v -28 -78 0
v -27 -78 0
v -28 -79 0
v -29 -79 0
v -29 -78 0
v -28 -78 0
v -29 -79 0
v -30 -79 0
v -30 -78 0
v -29 -78 0
v -30 -79 0
v -31 -79 0
v -31 -78 0
v -30 -78 0
v -31 -79 0
v -32 -79 0
v -32 -78 0
v -31 -78 0
v -32 -79 0
v -33 -79 0
v -33 -78 0
v -32 -78 0
v -33 -79 0
v -34 -79 0
v -34 -78 0
v -33 -78 0
v -34 -79 0
v -35 -79 0
v -35 -78 0
v -34 -78 0
v -35 -79 0
v -36 -79 0
v -36 -78 0
v -35 -78 0
v -36 -79 0
v -37 -79 0
v -37 -78 0
v -36 -78 0
v -37 -79 0
v -38 -79 0
v -38 -78 0
v -37 -78 0
v -38 -79 0
v -39 -79 0
v -39 -78 0
v -38 -78 0
v -39 -79 0
v -40 -79 0
v -40 -78 0
v -39 -78 0
v -40 -79 0
v -41 -79 0
v -41 -78 0
v -40 -78 0
v -41 -79 0
v -42 -79 0
v -42 -78 0
v -41 -78 0
v -42 -79 0
v -43 -79 0
v -43 -78 0
v -42 -78 0
v -43 -79 0
v -44 -79 0
v -44 -78 0
v -43 -78 0
v -44 -79 0
v -45 -79 0
v -45 -78 0
v -44 -78 0
v -45 -79 0
v -46 -79 0
v -46 -78 0
v -45 -78 0
v -46 -79 0
v -47 -79 0
v -47 -78 0
v -46 -78 0
v -47 -79 0
v -48 -79 0
v -48 -78 0
v -47 -78 0
v -69 -79 0
v -70 -79 0
v -70 -78 0
v -69 -78 0
v -70 -79 0
v -71 -79 0
v -71 -78 0
v -70 -78 0
v -71 -79 0
v -72 -79 0
v -72 -78 0
v -71 -78 0
v -72 -79 0
v -73 -79 0
v -73 -78 0
v -72 -78 0
v -73 -79 0
v -74 -79 0
v -74 -78 0
v -73 -78 0
v -74 -79 0
v -75 -79 0
v -75 -78 0
v -74 -78 0
v -75 -79 0
v -76 -79 0
v -76 -78 0
v -75 -78 0
v -76 -79 0
v -77 -79 0
v -77 -78 0
v -76 -78 0
v -77 -79 0
v -78 -79 0
v -78 -78 0
v -77 -78 0
v -78 -79 0
v -79 -79 0
v -79 -78 0
v -78 -78 0
v -79 -79 0
v -80 -79 0
v -80 -78 0
v -79 -78 0
v -80 -79 0
v -81 -79 0
v -81 -78 0
v -80 -78 0
v -81 -79 0
v -82 -79 0
v -82 -78 0
v -81 -78 0
v -82 -79 0
v -83 -79 0
v -83 -78 0
v -82 -78 0
v -83 -79 0
v -84 -79 0
v -84 -78 0
v -83 -78 0
v -84 -79 0
v -85 -79 0
v -85 -78 0
v -84 -78 0
v -85 -79 0
v -86 -79 0
v -86 -78 0
v -85 -78 0
v -86 -79 0
v -87 -79 0
v -87 -78 0
v -86 -78 0
v -87 -79 0
v -88 -79 0
v -88 -78 0
v -87 -78 0
v -88 -79 0
v -89 -79 0
v -89 -78 0
v -88 -78 0
v 0 -80 0
v -1 -80 0
v -1 -79 0
v 0 -79 0
v -69 -80 0
v -70 -80 0
v -70 -79 0
v -69 -79 0
v -70 -80 0
v -71 -80 0
v -71 -79 0
v -70 -79 0
v -71 -80 0
v -72 -80 0
v -72 -79 0
v -71 -79 0
v -72 -80 0
v -73 -80 0
v -73 -79 0
v -72 -79 0
v -73 -80 0
v -74 -80 0
v -74 -79 0
v -73 -79 0
v -74 -80 0
v -75 -80 0
v -75 -79 0
v -74 -79 0
v -75 -80 0
v -76 -80 0
v -76 -79 0
v -75 -79 0
v -76 -80 0
v -77 -80 0
v -77 -79 0
v -76 -79 0
v -77 -80 0
v -78 -80 0
v -78 -79 0
v -77 -79 0
v -78 -80 0
v -79 -80 0
v -79 -79 0
v -78 -79 0
v -79 -80 0
v -80 -80 0
v -80 -79 0
v -79 -79 0
v -80 -80 0
v -81 -80 0
v -81 -79 0
v -80 -79 0
v -81 -80 0
v -82 -80 0
v -82 -79 0
v -81 -79 0
v -82 -80 0
v -83 -80 0
v -83 -79 0
v -82 -79 0
v -83 -80 0
v -84 -80 0
v -84 -79 0
v -83 -79 0
v -84 -80 0
v -85 -80 0
v -85 -79 0
v -84 -79 0
v -85 -80 0
v -86 -80 0
v -86 -79 0
v -85 -79 0
v -86 -80 0
v -87 -80 0
v -87 -79 0
v -86 -79 0
v -87 -80 0
v -88 -80 0
v -88 -79 0
v -87 -79 0
v -88 -80 0
v -89 -80 0
v -89 -79 0
v -88 -79 0
v -89 -87 0
v -90 -87 0
v -90 -86 0
v -89 -86 0
v -90 -87 0
v -91 -87 0
v -91 -86 0
v -90 -86 0
v -91 -87 0
v -92 -87 0
v -92 -86 0
v -91 -86 0
v -92 -87 0
v -93 -87 0
v -93 -86 0
v -92 -86 0
v -93 -87 0
v -94 -87 0
v -94 -86 0
v -93 -86 0
v -94 -87 0
v -95 -87 0
v -95 -86 0
v -94 -86 0
v -95 -87 0
v -96 -87 0
v -96 -86 0
v -95 -86 0
v -96 -87 0
v -97 -87 0
v -97 -86 0
v -96 -86 0
v -97 -87 0
v -98 -87 0
v -98 -86 0
v -97 -86 0
v -98 -87 0
v -99 -87 0
v -99 -86 0
v -98 -86 0
v -99 -87 0
v -100 -87 0
v -100 -86 0
v -99 -86 0
v -100 -87 0
v -101 -87 0
v -101 -86 0
v -100 -86 0
v -101 -87 0
v -102 -87 0
v -102 -86 0
v -101 -86 0
v -102 -87 0
v -103 -87 0
v -103 -86 0
v -102 -86 0
v -103 -87 0
v -104 -87 0
v -104 -86 0
v -103 -86 0
v -104 -87 0
v -105 -87 0
v -105 -86 0
v -104 -86 0
v -105 -87 0
v -106 -87 0
v -106 -86 0
v -105 -86 0
v -106 -87 0
v -107 -87 0
v -107 -86 0
v -106 -86 0
v -107 -87 0
v -108 -87 0
v -108 -86 0
v -107 -86 0
v -108 -87 0
v -109 -87 0
v -109 -86 0
v -108 -86 0
v -109 -87 0
v -110 -87 0
v -110 -86 0
v -109 -86 0
v -110 -87 0
v -111 -87 0
v -111 -86 0
v -110 -86 0
v -111 -87 0
v -112 -87 0
v -112 -86 0
v -111 -86 0
v -112 -87 0
v -113 -87 0
v -113 -86 0
v -112 -86 0
v -113 -87 0
v -114 -87 0
v -114 -86 0
v -113 -86 0
v -89 -88 0
v -90 -88 0
v -90 -87 0
v -89 -87 0
v -90 -88 0
v -91 -88 0
v -91 -87 0
v -90 -87 0
v -91 -88 0
v -92 -88 0
v -92 -87 0
v -91 -87 0
v -92 -88 0
v -93 -88 0
v -93 -87 0
v -92 -87 0
v -93 -88 0
v -94 -88 0
v -94 -87 0
v -93 -87 0
v -94 -88 0
v -95 -88 0
v -95 -87 0
v -94 -87 0
v -95 -88 0
v -96 -88 0
v -96 -87 0
v -95 -87 0
v -96 -88 0
v -97 -88 0
v -97 -87 0
v -96 -87 0
v -97 -88 0
v -98 -88 0
v -98 -87 0
v -97 -87 0
v -98 -88 0
v -99 -88 0
v -99 -87 0
v -98 -87 0
v -99 -88 0
v -100 -88 0
v -100 -87 0
v -99 -87 0
v -100 -88 0
v -101 -88 0
v -101 -87 0
v -100 -87 0
v -101 -88 0
v -102 -88 0
v -102 -87 0
v -101 -87 0
v -102 -88 0
v -103 -88 0
v -103 -87 0
v -102 -87 0
v -103 -88 0
v -104 -88 0
v -104 -87 0
v -103 -87 0
v -104 -88 0
v -105 -88 0
v -105 -87 0
v -104 -87 0
v -105 -88 0
v -106 -88 0
v -106 -87 0
v -105 -87 0
v -106 -88 0
v -107 -88 0
v -107 -87 0
v -106 -87 0
v -107 -88 0
v -108 -88 0
v -108 -87 0
v -107 -87 0
v -108 -88 0
v -109 -88 0
v -109 -87 0
v -108 -87 0
v -109 -88 0
v -110 -88 0
v -110 -87 0
v -109 -87 0
v -110 -88 0
v -111 -88 0
v -111 -87 0
v -110 -87 0
v -111 -88 0
v -112 -88 0
v -112 -87 0
v -111 -87 0
v -112 -88 0
v -113 -88 0
v -113 -87 0
v -112 -87 0
v -113 -88 0
v -114 -88 0
v -114 -87 0
v -113 -87 0
v -121 -90 0
v -122 -90 0
v -122 -89 0
v -121 -89 0
v -122 -90 0
v -123 -90 0
v -123 -89 0
v -122 -89 0
v -123 -90 0
v -124 -90 0
v -124 -89 0
v -123 -89 0
v -124 -90 0
v -125 -90 0
v -125 -89 0
v -124 -89 0
v -125 -90 0
v -126 -90 0
v -126 -89 0
v -125 -89 0
v -126 -90 0
v -127 -90 0
v -127 -89 0
v -126 -89 0
v -127 -90 0
v -128 -90 0
v -128 -89 0
v -127 -89 0
v -128 -90 0
v -129 -90 0
v -129 -89 0
v -128 -89 0
v -129 -90 0
v -130 -90 0
v -130 -89 0
v -129 -89 0
v -130 -90 0
v -131 -90 0
v -131 -89 0
v -130 -89 0
v -131 -90 0
v -132 -90 0
v -132 -89 0
v -131 -89 0
v -132 -90 0
v -133 -90 0
v -133 -89 0
v -132 -89 0
v -133 -90 0
v -134 -90 0
v -134 -89 0
v -133 -89 0
v -134 -90 0
v -135 -90 0
v -135 -89 0
v -134 -89 0
v -135 -90 0
v -136 -90 0
v -136 -89 0
v -135 -89 0
v -136 -90 0
v -137 -90 0
v -137 -89 0
v -136 -89 0
v -137 -90 0
v -138 -90 0
v -138 -89 0
v -137 -89 0
v -138 -90 0
v -139 -90 0
v -139 -89 0
v -138 -89 0
v -139 -90 0
v -140 -90 0
v -140 -89 0
v -139 -89 0
v -140 -90 0
v -141 -90 0
v -141 -89 0
v -140 -89 0
v -141 -90 0
v -142 -90 0
v -142 -89 0
v -141 -89 0
v -121 -91 0
v -122 -91 0
v -122 -90 0
v -121 -90 0
v -122 -91 0
v -123 -91 0
v -123 -90 0
v -122 -90 0
v -123 -91 0
v -124 -91 0
v -124 -90 0
v -123 -90 0
v -124 -91 0
v -125 -91 0
v -125 -90 0
v -124 -90 0
v -125 -91 0
v -126 -91 0
v -126 -90 0
v -125 -90 0
v -126 -91 0
v -127 -91 0
v -127 -90 0
v -126 -90 0
v -127 -91 0
v -128 -91 0
v -128 -90 0
v -127 -90 0
v -128 -91 0
v -129 -91 0
v -129 -90 0
v -128 -90 0
v -129 -91 0
v -130 -91 0
v -130 -90 0
v -129 -90 0
v -130 -91 0
v -131 -91 0
v -131 -90 0
v -130 -90 0
v -131 -91 0
v -132 -91 0
v -132 -90 0
v -131 -90 0
v -132 -91 0
v -133 -91 0
v -133 -90 0
v -132 -90 0
v -133 -91 0
v -134 -91 0
v -134 -90 0
v -133 -90 0
v -134 -91 0
v -135 -91 0
v -135 -90 0
v -134 -90 0
v -135 -91 0
v -136 -91 0
v -136 -90 0
v -135 -90 0
v -136 -91 0
v -137 -91 0
v -137 -90 0
v -136 -90 0
v -137 -91 0
v -138 -91 0
v -138 -90 0
v -137 -90 0
v -138 -91 0
v -139 -91 0
v -139 -90 0
v -138 -90 0
v -139 -91 0
v -140 -91 0
v -140 -90 0
v -139 -90 0
v -140 -91 0
v -141 -91 0
v -141 -90 0
v -140 -90 0
v -141 -91 0
v -142 -91 0
v -142 -90 0
v -141 -90 0

# Texture cooridinates (Count = 29)
vt 0 0.1333333
vt 0.03333334 0.1333333
vt 0.03333334 0.1666667
vt 0 0.1666667
vt 0.06666667 0.1333333
vt 0.06666667 0.1666667
vt 0.1 0.1333333
vt 0.1 0.1666667
vt 0.1666667 0.1333333
vt 0.2 0.1333333
vt 0.2 0.1666667
vt 0.1666667 0.1666667
vt 0.2666667 0.1333333
vt 0.3 0.1333333
vt 0.3 0.1666667
vt 0.2666667 0.1666667
vt 0 0.1
vt 0.03333334 0.1
vt 0.06666667 0.1
vt 0.1 0.1
vt 0.1666667 0.1
vt 0.2 0.1
vt 0.1333333 0.1333333
vt 0.1333333 0.1666667
vt 0.2333333 0.1333333
vt 0.2333333 0.1666667
vt 0.1333333 0.1
vt 0.2333333 0.1
vt 0.2666667 0.1

# Normal
vn 0 0 -1

# Mesh description
g MidtermMap_mesh_0003

# Faces
f 1/1/1 2/2/1 3/3/1 4/4/1
f 5/2/1 6/5/1 7/6/1 8/3/1
f 9/5/1 10/7/1 11/8/1 12/6/1
f 13/2/1 14/5/1 15/6/1 16/3/1
f 17/2/1 18/5/1 19/6/1 20/3/1
f 21/2/1 22/5/1 23/6/1 24/3/1
f 25/2/1 26/5/1 27/6/1 28/3/1
f 29/5/1 30/7/1 31/8/1 32/6/1
f 33/2/1 34/5/1 35/6/1 36/3/1
f 37/5/1 38/7/1 39/8/1 40/6/1
f 41/2/1 42/5/1 43/6/1 44/3/1
f 45/2/1 46/5/1 47/6/1 48/3/1
f 49/5/1 50/7/1 51/8/1 52/6/1
f 53/2/1 54/5/1 55/6/1 56/3/1
f 57/5/1 58/7/1 59/8/1 60/6/1
f 61/9/1 62/10/1 63/11/1 64/12/1
f 65/13/1 66/14/1 67/15/1 68/16/1
f 69/17/1 70/18/1 71/2/1 72/1/1
f 73/18/1 74/19/1 75/5/1 76/2/1
f 77/19/1 78/20/1 79/7/1 80/5/1
f 81/18/1 82/19/1 83/5/1 84/2/1
f 85/18/1 86/19/1 87/5/1 88/2/1
f 89/18/1 90/19/1 91/5/1 92/2/1
f 93/18/1 94/19/1 95/5/1 96/2/1
f 97/19/1 98/20/1 99/7/1 100/5/1
f 101/18/1 102/19/1 103/5/1 104/2/1
f 105/19/1 106/20/1 107/7/1 108/5/1
f 109/18/1 110/19/1 111/5/1 112/2/1
f 113/18/1 114/19/1 115/5/1 116/2/1
f 117/19/1 118/20/1 119/7/1 120/5/1
f 121/18/1 122/19/1 123/5/1 124/2/1
f 125/19/1 126/20/1 127/7/1 128/5/1
f 129/21/1 130/22/1 131/10/1 132/9/1
f 133/13/1 134/14/1 135/15/1 136/16/1
f 137/1/1 138/2/1 139/3/1 140/4/1
f 141/2/1 142/5/1 143/6/1 144/3/1
f 145/2/1 146/5/1 147/6/1 148/3/1
f 149/2/1 150/5/1 151/6/1 152/3/1
f 153/2/1 154/5/1 155/6/1 156/3/1
f 157/2/1 158/5/1 159/6/1 160/3/1
f 161/2/1 162/5/1 163/6/1 164/3/1
f 165/2/1 166/5/1 167/6/1 168/3/1
f 169/2/1 170/5/1 171/6/1 172/3/1
f 173/2/1 174/5/1 175/6/1 176/3/1
f 177/2/1 178/5/1 179/6/1 180/3/1
f 181/2/1 182/5/1 183/6/1 184/3/1
f 185/2/1 186/5/1 187/6/1 188/3/1
f 189/2/1 190/5/1 191/6/1 192/3/1
f 193/2/1 194/5/1 195/6/1 196/3/1
f 197/2/1 198/5/1 199/6/1 200/3/1
f 201/2/1 202/5/1 203/6/1 204/3/1
f 205/2/1 206/5/1 207/6/1 208/3/1
f 209/2/1 210/5/1 211/6/1 212/3/1
f 213/2/1 214/5/1 215/6/1 216/3/1
f 217/2/1 218/5/1 219/6/1 220/3/1
f 221/2/1 222/5/1 223/6/1 224/3/1
f 225/2/1 226/5/1 227/6/1 228/3/1
f 229/2/1 230/5/1 231/6/1 232/3/1
f 233/2/1 234/5/1 235/6/1 236/3/1
f 237/2/1 238/5/1 239/6/1 240/3/1
f 241/2/1 242/5/1 243/6/1 244/3/1
f 245/2/1 246/5/1 247/6/1 248/3/1
f 249/2/1 250/5/1 251/6/1 252/3/1
f 253/2/1 254/5/1 255/6/1 256/3/1
f 257/2/1 258/5/1 259/6/1 260/3/1
f 261/2/1 262/5/1 263/6/1 264/3/1
f 265/2/1 266/5/1 267/6/1 268/3/1
f 269/2/1 270/5/1 271/6/1 272/3/1
f 273/2/1 274/5/1 275/6/1 276/3/1
f 277/2/1 278/5/1 279/6/1 280/3/1
f 281/2/1 282/5/1 283/6/1 284/3/1
f 285/2/1 286/5/1 287/6/1 288/3/1
f 289/2/1 290/5/1 291/6/1 292/3/1
f 293/2/1 294/5/1 295/6/1 296/3/1
f 297/23/1 298/9/1 299/12/1 300/24/1
f 301/23/1 302/9/1 303/12/1 304/24/1
f 305/2/1 306/5/1 307/6/1 308/3/1
f 309/7/1 310/23/1 311/24/1 312/8/1
f 313/23/1 314/9/1 315/12/1 316/24/1
f 317/2/1 318/5/1 319/6/1 320/3/1
f 321/25/1 322/13/1 323/16/1 324/26/1
f 325/13/1 326/14/1 327/15/1 328/16/1
f 329/17/1 330/18/1 331/2/1 332/1/1
f 333/18/1 334/19/1 335/5/1 336/2/1
f 337/18/1 338/19/1 339/5/1 340/2/1
f 341/18/1 342/19/1 343/5/1 344/2/1
f 345/18/1 346/19/1 347/5/1 348/2/1
f 349/18/1 350/19/1 351/5/1 352/2/1
f 353/18/1 354/19/1 355/5/1 356/2/1
f 357/18/1 358/19/1 359/5/1 360/2/1
f 361/18/1 362/19/1 363/5/1 364/2/1
f 365/18/1 366/19/1 367/5/1 368/2/1
f 369/18/1 370/19/1 371/5/1 372/2/1
f 373/18/1 374/19/1 375/5/1 376/2/1
f 377/18/1 378/19/1 379/5/1 380/2/1
f 381/18/1 382/19/1 383/5/1 384/2/1
f 385/18/1 386/19/1 387/5/1 388/2/1
f 389/18/1 390/19/1 391/5/1 392/2/1
f 393/18/1 394/19/1 395/5/1 396/2/1
f 397/18/1 398/19/1 399/5/1 400/2/1
f 401/18/1 402/19/1 403/5/1 404/2/1
f 405/18/1 406/19/1 407/5/1 408/2/1
f 409/18/1 410/19/1 411/5/1 412/2/1
f 413/18/1 414/19/1 415/5/1 416/2/1
f 417/18/1 418/19/1 419/5/1 420/2/1
f 421/18/1 422/19/1 423/5/1 424/2/1
f 425/18/1 426/19/1 427/5/1 428/2/1
f 429/18/1 430/19/1 431/5/1 432/2/1
f 433/18/1 434/19/1 435/5/1 436/2/1
f 437/18/1 438/19/1 439/5/1 440/2/1
f 441/18/1 442/19/1 443/5/1 444/2/1
f 445/18/1 446/19/1 447/5/1 448/2/1
f 449/18/1 450/19/1 451/5/1 452/2/1
f 453/18/1 454/19/1 455/5/1 456/2/1
f 457/18/1 458/19/1 459/5/1 460/2/1
f 461/18/1 462/19/1 463/5/1 464/2/1
f 465/18/1 466/19/1 467/5/1 468/2/1
f 469/18/1 470/19/1 471/5/1 472/2/1
f 473/18/1 474/19/1 475/5/1 476/2/1
f 477/18/1 478/19/1 479/5/1 480/2/1
f 481/18/1 482/19/1 483/5/1 484/2/1
f 485/18/1 486/19/1 487/5/1 488/2/1
f 489/27/1 490/21/1 491/9/1 492/23/1
f 493/27/1 494/21/1 495/9/1 496/23/1
f 497/18/1 498/19/1 499/5/1 500/2/1
f 501/20/1 502/27/1 503/23/1 504/7/1
f 505/27/1 506/21/1 507/9/1 508/23/1
f 509/18/1 510/19/1 511/5/1 512/2/1
f 513/28/1 514/29/1 515/13/1 516/25/1
f 517/10/1 518/25/1 519/26/1 520/11/1
f 521/5/1 522/7/1 523/8/1 524/6/1
f 525/7/1 526/23/1 527/24/1 528/8/1
f 529/23/1 530/9/1 531/12/1 532/24/1
f 533/5/1 534/7/1 535/8/1 536/6/1
f 537/5/1 538/7/1 539/8/1 540/6/1
f 541/5/1 542/7/1 543/8/1 544/6/1
f 545/5/1 546/7/1 547/8/1 548/6/1
f 549/7/1 550/23/1 551/24/1 552/8/1
f 553/23/1 554/9/1 555/12/1 556/24/1
f 557/5/1 558/7/1 559/8/1 560/6/1
f 561/7/1 562/23/1 563/24/1 564/8/1
f 565/23/1 566/9/1 567/12/1 568/24/1
f 569/5/1 570/7/1 571/8/1 572/6/1
f 573/7/1 574/23/1 575/24/1 576/8/1
f 577/23/1 578/9/1 579/12/1 580/24/1
f 581/5/1 582/7/1 583/8/1 584/6/1
f 585/7/1 586/23/1 587/24/1 588/8/1
f 589/23/1 590/9/1 591/12/1 592/24/1
f 593/25/1 594/13/1 595/16/1 596/26/1
f 597/13/1 598/14/1 599/15/1 600/16/1
f 601/22/1 602/28/1 603/25/1 604/10/1
f 605/19/1 606/20/1 607/7/1 608/5/1
f 609/20/1 610/27/1 611/23/1 612/7/1
f 613/27/1 614/21/1 615/9/1 616/23/1
f 617/19/1 618/20/1 619/7/1 620/5/1
f 621/19/1 622/20/1 623/7/1 624/5/1
f 625/19/1 626/20/1 627/7/1 628/5/1
f 629/19/1 630/20/1 631/7/1 632/5/1
f 633/20/1 634/27/1 635/23/1 636/7/1
f 637/27/1 638/21/1 639/9/1 640/23/1
f 641/19/1 642/20/1 643/7/1 644/5/1
f 645/20/1 646/27/1 647/23/1 648/7/1
f 649/27/1 650/21/1 651/9/1 652/23/1
f 653/19/1 654/20/1 655/7/1 656/5/1
f 657/20/1 658/27/1 659/23/1 660/7/1
f 661/27/1 662/21/1 663/9/1 664/23/1
f 665/19/1 666/20/1 667/7/1 668/5/1
f 669/20/1 670/27/1 671/23/1 672/7/1
f 673/27/1 674/21/1 675/9/1 676/23/1
f 677/28/1 678/29/1 679/13/1 680/25/1
f 681/1/1 682/2/1 683/3/1 684/4/1
f 685/2/1 686/5/1 687/6/1 688/3/1
f 689/2/1 690/5/1 691/6/1 692/3/1
f 693/5/1 694/7/1 695/8/1 696/6/1
f 697/7/1 698/23/1 699/24/1 700/8/1
f 701/23/1 702/9/1 703/12/1 704/24/1
f 705/2/1 706/5/1 707/6/1 708/3/1
f 709/5/1 710/7/1 711/8/1 712/6/1
f 713/7/1 714/23/1 715/24/1 716/8/1
f 717/23/1 718/9/1 719/12/1 720/24/1
f 721/2/1 722/5/1 723/6/1 724/3/1
f 725/5/1 726/7/1 727/8/1 728/6/1
f 729/2/1 730/5/1 731/6/1 732/3/1
f 733/5/1 734/7/1 735/8/1 736/6/1
f 737/7/1 738/23/1 739/24/1 740/8/1
f 741/23/1 742/9/1 743/12/1 744/24/1
f 745/2/1 746/5/1 747/6/1 748/3/1
f 749/5/1 750/7/1 751/8/1 752/6/1
f 753/7/1 754/23/1 755/24/1 756/8/1
f 757/23/1 758/9/1 759/12/1 760/24/1
f 761/2/1 762/5/1 763/6/1 764/3/1
f 765/5/1 766/7/1 767/8/1 768/6/1
f 769/7/1 770/23/1 771/24/1 772/8/1
f 773/23/1 774/9/1 775/12/1 776/24/1
f 777/9/1 778/10/1 779/11/1 780/12/1
f 781/17/1 782/18/1 783/2/1 784/1/1
f 785/18/1 786/19/1 787/5/1 788/2/1
f 789/18/1 790/19/1 791/5/1 792/2/1
f 793/19/1 794/20/1 795/7/1 796/5/1
f 797/20/1 798/27/1 799/23/1 800/7/1
f 801/27/1 802/21/1 803/9/1 804/23/1
f 805/18/1 806/19/1 807/5/1 808/2/1
f 809/19/1 810/20/1 811/7/1 812/5/1
f 813/20/1 814/27/1 815/23/1 816/7/1
f 817/27/1 818/21/1 819/9/1 820/23/1
f 821/18/1 822/19/1 823/5/1 824/2/1
f 825/19/1 826/20/1 827/7/1 828/5/1
f 829/18/1 830/19/1 831/5/1 832/2/1
f 833/19/1 834/20/1 835/7/1 836/5/1
f 837/20/1 838/27/1 839/23/1 840/7/1
f 841/27/1 842/21/1 843/9/1 844/23/1
f 845/18/1 846/19/1 847/5/1 848/2/1
f 849/19/1 850/20/1 851/7/1 852/5/1
f 853/20/1 854/27/1 855/23/1 856/7/1
f 857/27/1 858/21/1 859/9/1 860/23/1
f 861/18/1 862/19/1 863/5/1 864/2/1
f 865/19/1 866/20/1 867/7/1 868/5/1
f 869/20/1 870/27/1 871/23/1 872/7/1
f 873/27/1 874/21/1 875/9/1 876/23/1
f 877/21/1 878/22/1 879/10/1 880/9/1
f 881/1/1 882/2/1 883/3/1 884/4/1
f 885/2/1 886/5/1 887/6/1 888/3/1
f 889/5/1 890/7/1 891/8/1 892/6/1
f 893/7/1 894/23/1 895/24/1 896/8/1
f 897/2/1 898/5/1 899/6/1 900/3/1
f 901/5/1 902/7/1 903/8/1 904/6/1
f 905/2/1 906/5/1 907/6/1 908/3/1
f 909/5/1 910/7/1 911/8/1 912/6/1
f 913/7/1 914/23/1 915/24/1 916/8/1
f 917/5/1 918/7/1 919/8/1 920/6/1
f 921/7/1 922/23/1 923/24/1 924/8/1
f 925/2/1 926/5/1 927/6/1 928/3/1
f 929/5/1 930/7/1 931/8/1 932/6/1
f 933/7/1 934/23/1 935/24/1 936/8/1
f 937/2/1 938/5/1 939/6/1 940/3/1
f 941/5/1 942/7/1 943/8/1 944/6/1
f 945/7/1 946/23/1 947/24/1 948/8/1
f 949/2/1 950/5/1 951/6/1 952/3/1
f 953/5/1 954/7/1 955/8/1 956/6/1
f 957/7/1 958/23/1 959/24/1 960/8/1
f 961/9/1 962/10/1 963/11/1 964/12/1
f 965/17/1 966/18/1 967/2/1 968/1/1
f 969/18/1 970/19/1 971/5/1 972/2/1
f 973/19/1 974/20/1 975/7/1 976/5/1
f 977/20/1 978/27/1 979/23/1 980/7/1
f 981/18/1 982/19/1 983/5/1 984/2/1
f 985/19/1 986/20/1 987/7/1 988/5/1
f 989/18/1 990/19/1 991/5/1 992/2/1
f 993/19/1 994/20/1 995/7/1 996/5/1
f 997/20/1 998/27/1 999/23/1 1000/7/1
f 1001/19/1 1002/20/1 1003/7/1 1004/5/1
f 1005/20/1 1006/27/1 1007/23/1 1008/7/1
f 1009/18/1 1010/19/1 1011/5/1 1012/2/1
f 1013/19/1 1014/20/1 1015/7/1 1016/5/1
f 1017/20/1 1018/27/1 1019/23/1 1020/7/1
f 1021/18/1 1022/19/1 1023/5/1 1024/2/1
f 1025/19/1 1026/20/1 1027/7/1 1028/5/1
f 1029/20/1 1030/27/1 1031/23/1 1032/7/1
f 1033/18/1 1034/19/1 1035/5/1 1036/2/1
f 1037/19/1 1038/20/1 1039/7/1 1040/5/1
f 1041/20/1 1042/27/1 1043/23/1 1044/7/1
f 1045/21/1 1046/22/1 1047/10/1 1048/9/1

