# Tiled2Unity generated file. Do not modify by hand.
# Wavefront file for 'MidtermMap3_mesh_0003.obj'

# Vertices (Count = 824)
v -9 -17 0
v -10 -17 0
v -10 -16 0
v -9 -16 0
v -10 -17 0
v -11 -17 0
v -11 -16 0
v -10 -16 0
v -11 -17 0
v -12 -17 0
v -12 -16 0
v -11 -16 0
v -12 -17 0
v -13 -17 0
v -13 -16 0
v -12 -16 0
v -13 -17 0
v -14 -17 0
v -14 -16 0
v -13 -16 0
v -14 -17 0
v -15 -17 0
v -15 -16 0
v -14 -16 0
v -15 -17 0
v -16 -17 0
v -16 -16 0
v -15 -16 0
v -16 -17 0
v -17 -17 0
v -17 -16 0
v -16 -16 0
v -17 -17 0
v -18 -17 0
v -18 -16 0
v -17 -16 0
v -18 -17 0
v -19 -17 0
v -19 -16 0
v -18 -16 0
v -19 -17 0
v -20 -17 0
v -20 -16 0
v -19 -16 0
v -20 -17 0
v -21 -17 0
v -21 -16 0
v -20 -16 0
v -21 -17 0
v -22 -17 0
v -22 -16 0
v -21 -16 0
v -22 -17 0
v -23 -17 0
v -23 -16 0
v -22 -16 0
v -23 -17 0
v -24 -17 0
v -24 -16 0
v -23 -16 0
v -24 -17 0
v -25 -17 0
v -25 -16 0
v -24 -16 0
v -25 -17 0
v -26 -17 0
v -26 -16 0
v -25 -16 0
v -26 -17 0
v -27 -17 0
v -27 -16 0
v -26 -16 0
v -27 -17 0
v -28 -17 0
v -28 -16 0
v -27 -16 0
v -28 -17 0
v -29 -17 0
v -29 -16 0
v -28 -16 0
v -29 -17 0
v -30 -17 0
v -30 -16 0
v -29 -16 0
v -30 -17 0
v -31 -17 0
v -31 -16 0
v -30 -16 0
v -31 -17 0
v -32 -17 0
v -32 -16 0
v -31 -16 0
v -32 -17 0
v -33 -17 0
v -33 -16 0
v -32 -16 0
v -9 -18 0
v -10 -18 0
v -10 -17 0
v -9 -17 0
v -10 -18 0
v -11 -18 0
v -11 -17 0
v -10 -17 0
v -11 -18 0
v -12 -18 0
v -12 -17 0
v -11 -17 0
v -12 -18 0
v -13 -18 0
v -13 -17 0
v -12 -17 0
v -13 -18 0
v -14 -18 0
v -14 -17 0
v -13 -17 0
v -14 -18 0
v -15 -18 0
v -15 -17 0
v -14 -17 0
v -15 -18 0
v -16 -18 0
v -16 -17 0
v -15 -17 0
v -16 -18 0
v -17 -18 0
v -17 -17 0
v -16 -17 0
v -17 -18 0
v -18 -18 0
v -18 -17 0
v -17 -17 0
v -18 -18 0
v -19 -18 0
v -19 -17 0
v -18 -17 0
v -19 -18 0
v -20 -18 0
v -20 -17 0
v -19 -17 0
v -20 -18 0
v -21 -18 0
v -21 -17 0
v -20 -17 0
v -21 -18 0
v -22 -18 0
v -22 -17 0
v -21 -17 0
v -22 -18 0
v -23 -18 0
v -23 -17 0
v -22 -17 0
v -23 -18 0
v -24 -18 0
v -24 -17 0
v -23 -17 0
v -24 -18 0
v -25 -18 0
v -25 -17 0
v -24 -17 0
v -25 -18 0
v -26 -18 0
v -26 -17 0
v -25 -17 0
v -26 -18 0
v -27 -18 0
v -27 -17 0
v -26 -17 0
v -27 -18 0
v -28 -18 0
v -28 -17 0
v -27 -17 0
v -28 -18 0
v -29 -18 0
v -29 -17 0
v -28 -17 0
v -29 -18 0
v -30 -18 0
v -30 -17 0
v -29 -17 0
v -30 -18 0
v -31 -18 0
v -31 -17 0
v -30 -17 0
v -31 -18 0
v -32 -18 0
v -32 -17 0
v -31 -17 0
v -32 -18 0
v -33 -18 0
v -33 -17 0
v -32 -17 0
v -50 -22 0
v -51 -22 0
v -51 -21 0
v -50 -21 0
v -51 -22 0
v -52 -22 0
v -52 -21 0
v -51 -21 0
v -52 -22 0
v -53 -22 0
v -53 -21 0
v -52 -21 0
v -53 -22 0
v -54 -22 0
v -54 -21 0
v -53 -21 0
v -54 -22 0
v -55 -22 0
v -55 -21 0
v -54 -21 0
v -55 -22 0
v -56 -22 0
v -56 -21 0
v -55 -21 0
v -56 -22 0
v -57 -22 0
v -57 -21 0
v -56 -21 0
v -57 -22 0
v -58 -22 0
v -58 -21 0
v -57 -21 0
v -58 -22 0
v -59 -22 0
v -59 -21 0
v -58 -21 0
v -59 -22 0
v -60 -22 0
v -60 -21 0
v -59 -21 0
v -60 -22 0
v -61 -22 0
v -61 -21 0
v -60 -21 0
v -61 -22 0
v -62 -22 0
v -62 -21 0
v -61 -21 0
v -62 -22 0
v -63 -22 0
v -63 -21 0
v -62 -21 0
v -63 -22 0
v -64 -22 0
v -64 -21 0
v -63 -21 0
v -64 -22 0
v -65 -22 0
v -65 -21 0
v -64 -21 0
v -65 -22 0
v -66 -22 0
v -66 -21 0
v -65 -21 0
v -66 -22 0
v -67 -22 0
v -67 -21 0
v -66 -21 0
v -67 -22 0
v -68 -22 0
v -68 -21 0
v -67 -21 0
v -68 -22 0
v -69 -22 0
v -69 -21 0
v -68 -21 0
v -69 -22 0
v -70 -22 0
v -70 -21 0
v -69 -21 0
v -70 -22 0
v -71 -22 0
v -71 -21 0
v -70 -21 0
v -71 -22 0
v -72 -22 0
v -72 -21 0
v -71 -21 0
v -50 -23 0
v -51 -23 0
v -51 -22 0
v -50 -22 0
v -51 -23 0
v -52 -23 0
v -52 -22 0
v -51 -22 0
v -52 -23 0
v -53 -23 0
v -53 -22 0
v -52 -22 0
v -53 -23 0
v -54 -23 0
v -54 -22 0
v -53 -22 0
v -54 -23 0
v -55 -23 0
v -55 -22 0
v -54 -22 0
v -55 -23 0
v -56 -23 0
v -56 -22 0
v -55 -22 0
v -56 -23 0
v -57 -23 0
v -57 -22 0
v -56 -22 0
v -57 -23 0
v -58 -23 0
v -58 -22 0
v -57 -22 0
v -58 -23 0
v -59 -23 0
v -59 -22 0
v -58 -22 0
v -59 -23 0
v -60 -23 0
v -60 -22 0
v -59 -22 0
v -60 -23 0
v -61 -23 0
v -61 -22 0
v -60 -22 0
v -61 -23 0
v -62 -23 0
v -62 -22 0
v -61 -22 0
v -62 -23 0
v -63 -23 0
v -63 -22 0
v -62 -22 0
v -63 -23 0
v -64 -23 0
v -64 -22 0
v -63 -22 0
v -64 -23 0
v -65 -23 0
v -65 -22 0
v -64 -22 0
v -65 -23 0
v -66 -23 0
v -66 -22 0
v -65 -22 0
v -66 -23 0
v -67 -23 0
v -67 -22 0
v -66 -22 0
v -67 -23 0
v -68 -23 0
v -68 -22 0
v -67 -22 0
v -68 -23 0
v -69 -23 0
v -69 -22 0
v -68 -22 0
v -69 -23 0
v -70 -23 0
v -70 -22 0
v -69 -22 0
v -70 -23 0
v -71 -23 0
v -71 -22 0
v -70 -22 0
v -71 -23 0
v -72 -23 0
v -72 -22 0
v -71 -22 0
v -76 -26 0
v -77 -26 0
v -77 -25 0
v -76 -25 0
v -77 -26 0
v -78 -26 0
v -78 -25 0
v -77 -25 0
v -78 -26 0
v -79 -26 0
v -79 -25 0
v -78 -25 0
v -79 -26 0
v -80 -26 0
v -80 -25 0
v -79 -25 0
v -80 -26 0
v -81 -26 0
v -81 -25 0
v -80 -25 0
v -81 -26 0
v -82 -26 0
v -82 -25 0
v -81 -25 0
v -82 -26 0
v -83 -26 0
v -83 -25 0
v -82 -25 0
v -83 -26 0
v -84 -26 0
v -84 -25 0
v -83 -25 0
v -84 -26 0
v -85 -26 0
v -85 -25 0
v -84 -25 0
v -85 -26 0
v -86 -26 0
v -86 -25 0
v -85 -25 0
v -86 -26 0
v -87 -26 0
v -87 -25 0
v -86 -25 0
v -87 -26 0
v -88 -26 0
v -88 -25 0
v -87 -25 0
v -88 -26 0
v -89 -26 0
v -89 -25 0
v -88 -25 0
v -89 -26 0
v -90 -26 0
v -90 -25 0
v -89 -25 0
v -90 -26 0
v -91 -26 0
v -91 -25 0
v -90 -25 0
v -91 -26 0
v -92 -26 0
v -92 -25 0
v -91 -25 0
v -92 -26 0
v -93 -26 0
v -93 -25 0
v -92 -25 0
v -93 -26 0
v -94 -26 0
v -94 -25 0
v -93 -25 0
v -94 -26 0
v -95 -26 0
v -95 -25 0
v -94 -25 0
v -95 -26 0
v -96 -26 0
v -96 -25 0
v -95 -25 0
v -96 -26 0
v -97 -26 0
v -97 -25 0
v -96 -25 0
v -97 -26 0
v -98 -26 0
v -98 -25 0
v -97 -25 0
v -98 -26 0
v -99 -26 0
v -99 -25 0
v -98 -25 0
v -99 -26 0
v -100 -26 0
v -100 -25 0
v -99 -25 0
v -100 -26 0
v -101 -26 0
v -101 -25 0
v -100 -25 0
v -101 -26 0
v -102 -26 0
v -102 -25 0
v -101 -25 0
v -102 -26 0
v -103 -26 0
v -103 -25 0
v -102 -25 0
v -76 -27 0
v -77 -27 0
v -77 -26 0
v -76 -26 0
v -77 -27 0
v -78 -27 0
v -78 -26 0
v -77 -26 0
v -78 -27 0
v -79 -27 0
v -79 -26 0
v -78 -26 0
v -79 -27 0
v -80 -27 0
v -80 -26 0
v -79 -26 0
v -80 -27 0
v -81 -27 0
v -81 -26 0
v -80 -26 0
v -81 -27 0
v -82 -27 0
v -82 -26 0
v -81 -26 0
v -82 -27 0
v -83 -27 0
v -83 -26 0
v -82 -26 0
v -83 -27 0
v -84 -27 0
v -84 -26 0
v -83 -26 0
v -84 -27 0
v -85 -27 0
v -85 -26 0
v -84 -26 0
v -85 -27 0
v -86 -27 0
v -86 -26 0
v -85 -26 0
v -86 -27 0
v -87 -27 0
v -87 -26 0
v -86 -26 0
v -87 -27 0
v -88 -27 0
v -88 -26 0
v -87 -26 0
v -88 -27 0
v -89 -27 0
v -89 -26 0
v -88 -26 0
v -89 -27 0
v -90 -27 0
v -90 -26 0
v -89 -26 0
v -90 -27 0
v -91 -27 0
v -91 -26 0
v -90 -26 0
v -91 -27 0
v -92 -27 0
v -92 -26 0
v -91 -26 0
v -92 -27 0
v -93 -27 0
v -93 -26 0
v -92 -26 0
v -93 -27 0
v -94 -27 0
v -94 -26 0
v -93 -26 0
v -94 -27 0
v -95 -27 0
v -95 -26 0
v -94 -26 0
v -95 -27 0
v -96 -27 0
v -96 -26 0
v -95 -26 0
v -96 -27 0
v -97 -27 0
v -97 -26 0
v -96 -26 0
v -97 -27 0
v -98 -27 0
v -98 -26 0
v -97 -26 0
v -98 -27 0
v -99 -27 0
v -99 -26 0
v -98 -26 0
v -99 -27 0
v -100 -27 0
v -100 -26 0
v -99 -26 0
v -100 -27 0
v -101 -27 0
v -101 -26 0
v -100 -26 0
v -101 -27 0
v -102 -27 0
v -102 -26 0
v -101 -26 0
v -102 -27 0
v -103 -27 0
v -103 -26 0
v -102 -26 0
v -116 -28 0
v -117 -28 0
v -117 -27 0
v -116 -27 0
v -117 -28 0
v -118 -28 0
v -118 -27 0
v -117 -27 0
v -118 -28 0
v -119 -28 0
v -119 -27 0
v -118 -27 0
v -119 -28 0
v -120 -28 0
v -120 -27 0
v -119 -27 0
v -120 -28 0
v -121 -28 0
v -121 -27 0
v -120 -27 0
v -121 -28 0
v -122 -28 0
v -122 -27 0
v -121 -27 0
v -122 -28 0
v -123 -28 0
v -123 -27 0
v -122 -27 0
v -123 -28 0
v -124 -28 0
v -124 -27 0
v -123 -27 0
v -124 -28 0
v -125 -28 0
v -125 -27 0
v -124 -27 0
v -125 -28 0
v -126 -28 0
v -126 -27 0
v -125 -27 0
v -126 -28 0
v -127 -28 0
v -127 -27 0
v -126 -27 0
v -127 -28 0
v -128 -28 0
v -128 -27 0
v -127 -27 0
v -128 -28 0
v -129 -28 0
v -129 -27 0
v -128 -27 0
v -116 -29 0
v -117 -29 0
v -117 -28 0
v -116 -28 0
v -117 -29 0
v -118 -29 0
v -118 -28 0
v -117 -28 0
v -118 -29 0
v -119 -29 0
v -119 -28 0
v -118 -28 0
v -119 -29 0
v -120 -29 0
v -120 -28 0
v -119 -28 0
v -120 -29 0
v -121 -29 0
v -121 -28 0
v -120 -28 0
v -121 -29 0
v -122 -29 0
v -122 -28 0
v -121 -28 0
v -122 -29 0
v -123 -29 0
v -123 -28 0
v -122 -28 0
v -123 -29 0
v -124 -29 0
v -124 -28 0
v -123 -28 0
v -124 -29 0
v -125 -29 0
v -125 -28 0
v -124 -28 0
v -125 -29 0
v -126 -29 0
v -126 -28 0
v -125 -28 0
v -126 -29 0
v -127 -29 0
v -127 -28 0
v -126 -28 0
v -127 -29 0
v -128 -29 0
v -128 -28 0
v -127 -28 0
v -128 -29 0
v -129 -29 0
v -129 -28 0
v -128 -28 0
v -143 -37 0
v -144 -37 0
v -144 -36 0
v -143 -36 0
v -130 -38 0
v -131 -38 0
v -131 -37 0
v -130 -37 0
v -131 -38 0
v -132 -38 0
v -132 -37 0
v -131 -37 0
v -132 -38 0
v -133 -38 0
v -133 -37 0
v -132 -37 0
v -133 -38 0
v -134 -38 0
v -134 -37 0
v -133 -37 0
v -134 -38 0
v -135 -38 0
v -135 -37 0
v -134 -37 0
v -135 -38 0
v -136 -38 0
v -136 -37 0
v -135 -37 0
v -136 -38 0
v -137 -38 0
v -137 -37 0
v -136 -37 0
v -137 -38 0
v -138 -38 0
v -138 -37 0
v -137 -37 0
v -138 -38 0
v -139 -38 0
v -139 -37 0
v -138 -37 0
v -139 -38 0
v -140 -38 0
v -140 -37 0
v -139 -37 0
v -140 -38 0
v -141 -38 0
v -141 -37 0
v -140 -37 0
v -141 -38 0
v -142 -38 0
v -142 -37 0
v -141 -37 0
v -142 -38 0
v -143 -38 0
v -143 -37 0
v -142 -37 0
v -143 -38 0
v -144 -38 0
v -144 -37 0
v -143 -37 0
v -144 -38 0
v -145 -38 0
v -145 -37 0
v -144 -37 0
v -130 -39 0
v -131 -39 0
v -131 -38 0
v -130 -38 0
v -131 -39 0
v -132 -39 0
v -132 -38 0
v -131 -38 0
v -132 -39 0
v -133 -39 0
v -133 -38 0
v -132 -38 0
v -133 -39 0
v -134 -39 0
v -134 -38 0
v -133 -38 0
v -134 -39 0
v -135 -39 0
v -135 -38 0
v -134 -38 0
v -135 -39 0
v -136 -39 0
v -136 -38 0
v -135 -38 0
v -136 -39 0
v -137 -39 0
v -137 -38 0
v -136 -38 0
v -137 -39 0
v -138 -39 0
v -138 -38 0
v -137 -38 0
v -138 -39 0
v -139 -39 0
v -139 -38 0
v -138 -38 0
v -139 -39 0
v -140 -39 0
v -140 -38 0
v -139 -38 0
v -140 -39 0
v -141 -39 0
v -141 -38 0
v -140 -38 0
v -141 -39 0
v -142 -39 0
v -142 -38 0
v -141 -38 0
v -142 -39 0
v -143 -39 0
v -143 -38 0
v -142 -38 0
v -143 -39 0
v -144 -39 0
v -144 -38 0
v -143 -38 0
v -144 -39 0
v -145 -39 0
v -145 -38 0
v -144 -38 0
v -140 -40 0
v -141 -40 0
v -141 -39 0
v -140 -39 0
v -143 -40 0
v -144 -40 0
v -144 -39 0
v -143 -39 0
v -144 -40 0
v -145 -40 0
v -145 -39 0
v -144 -39 0

# Texture cooridinates (Count = 29)
vt 0 0.1333333
vt 0.03333334 0.1333333
vt 0.03333334 0.1666667
vt 0 0.1666667
vt 0.06666667 0.1333333
vt 0.06666667 0.1666667
vt 0.1 0.1333333
vt 0.1 0.1666667
vt 0.1333333 0.1333333
vt 0.1333333 0.1666667
vt 0.1666667 0.1333333
vt 0.1666667 0.1666667
vt 0.2333333 0.1333333
vt 0.2666667 0.1333333
vt 0.2666667 0.1666667
vt 0.2333333 0.1666667
vt 0 0.1
vt 0.03333334 0.1
vt 0.06666667 0.1
vt 0.1 0.1
vt 0.1333333 0.1
vt 0.1666667 0.1
vt 0.2333333 0.1
vt 0.2666667 0.1
vt 0.2 0.1333333
vt 0.2 0.1666667
vt 0.2 0.1
vt 0.1 0.2
vt 0.06666667 0.2

# Normal
vn 0 0 -1

# Mesh description
g MidtermMap3_mesh_0003

# Faces
f 1/1/1 2/2/1 3/3/1 4/4/1
f 5/2/1 6/5/1 7/6/1 8/3/1
f 9/5/1 10/7/1 11/8/1 12/6/1
f 13/2/1 14/5/1 15/6/1 16/3/1
f 17/5/1 18/7/1 19/8/1 20/6/1
f 21/7/1 22/9/1 23/10/1 24/8/1
f 25/9/1 26/11/1 27/12/1 28/10/1
f 29/2/1 30/5/1 31/6/1 32/3/1
f 33/5/1 34/7/1 35/8/1 36/6/1
f 37/7/1 38/9/1 39/10/1 40/8/1
f 41/9/1 42/11/1 43/12/1 44/10/1
f 45/2/1 46/5/1 47/6/1 48/3/1
f 49/5/1 50/7/1 51/8/1 52/6/1
f 53/7/1 54/9/1 55/10/1 56/8/1
f 57/9/1 58/11/1 59/12/1 60/10/1
f 61/2/1 62/5/1 63/6/1 64/3/1
f 65/5/1 66/7/1 67/8/1 68/6/1
f 69/7/1 70/9/1 71/10/1 72/8/1
f 73/9/1 74/11/1 75/12/1 76/10/1
f 77/2/1 78/5/1 79/6/1 80/3/1
f 81/5/1 82/7/1 83/8/1 84/6/1
f 85/7/1 86/9/1 87/10/1 88/8/1
f 89/9/1 90/11/1 91/12/1 92/10/1
f 93/13/1 94/14/1 95/15/1 96/16/1
f 97/17/1 98/18/1 99/2/1 100/1/1
f 101/18/1 102/19/1 103/5/1 104/2/1
f 105/19/1 106/20/1 107/7/1 108/5/1
f 109/18/1 110/19/1 111/5/1 112/2/1
f 113/19/1 114/20/1 115/7/1 116/5/1
f 117/20/1 118/21/1 119/9/1 120/7/1
f 121/21/1 122/22/1 123/11/1 124/9/1
f 125/18/1 126/19/1 127/5/1 128/2/1
f 129/19/1 130/20/1 131/7/1 132/5/1
f 133/20/1 134/21/1 135/9/1 136/7/1
f 137/21/1 138/22/1 139/11/1 140/9/1
f 141/18/1 142/19/1 143/5/1 144/2/1
f 145/19/1 146/20/1 147/7/1 148/5/1
f 149/20/1 150/21/1 151/9/1 152/7/1
f 153/21/1 154/22/1 155/11/1 156/9/1
f 157/18/1 158/19/1 159/5/1 160/2/1
f 161/19/1 162/20/1 163/7/1 164/5/1
f 165/20/1 166/21/1 167/9/1 168/7/1
f 169/21/1 170/22/1 171/11/1 172/9/1
f 173/18/1 174/19/1 175/5/1 176/2/1
f 177/19/1 178/20/1 179/7/1 180/5/1
f 181/20/1 182/21/1 183/9/1 184/7/1
f 185/21/1 186/22/1 187/11/1 188/9/1
f 189/23/1 190/24/1 191/14/1 192/13/1
f 193/25/1 194/13/1 195/16/1 196/26/1
f 197/2/1 198/5/1 199/6/1 200/3/1
f 201/5/1 202/7/1 203/8/1 204/6/1
f 205/7/1 206/9/1 207/10/1 208/8/1
f 209/9/1 210/11/1 211/12/1 212/10/1
f 213/2/1 214/5/1 215/6/1 216/3/1
f 217/5/1 218/7/1 219/8/1 220/6/1
f 221/7/1 222/9/1 223/10/1 224/8/1
f 225/9/1 226/11/1 227/12/1 228/10/1
f 229/2/1 230/5/1 231/6/1 232/3/1
f 233/5/1 234/7/1 235/8/1 236/6/1
f 237/7/1 238/9/1 239/10/1 240/8/1
f 241/9/1 242/11/1 243/12/1 244/10/1
f 245/2/1 246/5/1 247/6/1 248/3/1
f 249/5/1 250/7/1 251/8/1 252/6/1
f 253/7/1 254/9/1 255/10/1 256/8/1
f 257/9/1 258/11/1 259/12/1 260/10/1
f 261/2/1 262/5/1 263/6/1 264/3/1
f 265/5/1 266/7/1 267/8/1 268/6/1
f 269/7/1 270/9/1 271/10/1 272/8/1
f 273/9/1 274/11/1 275/12/1 276/10/1
f 277/11/1 278/25/1 279/26/1 280/12/1
f 281/27/1 282/23/1 283/13/1 284/25/1
f 285/18/1 286/19/1 287/5/1 288/2/1
f 289/19/1 290/20/1 291/7/1 292/5/1
f 293/20/1 294/21/1 295/9/1 296/7/1
f 297/21/1 298/22/1 299/11/1 300/9/1
f 301/18/1 302/19/1 303/5/1 304/2/1
f 305/19/1 306/20/1 307/7/1 308/5/1
f 309/20/1 310/21/1 311/9/1 312/7/1
f 313/21/1 314/22/1 315/11/1 316/9/1
f 317/18/1 318/19/1 319/5/1 320/2/1
f 321/19/1 322/20/1 323/7/1 324/5/1
f 325/20/1 326/21/1 327/9/1 328/7/1
f 329/21/1 330/22/1 331/11/1 332/9/1
f 333/18/1 334/19/1 335/5/1 336/2/1
f 337/19/1 338/20/1 339/7/1 340/5/1
f 341/20/1 342/21/1 343/9/1 344/7/1
f 345/21/1 346/22/1 347/11/1 348/9/1
f 349/18/1 350/19/1 351/5/1 352/2/1
f 353/19/1 354/20/1 355/7/1 356/5/1
f 357/20/1 358/21/1 359/9/1 360/7/1
f 361/21/1 362/22/1 363/11/1 364/9/1
f 365/22/1 366/27/1 367/25/1 368/11/1
f 369/1/1 370/2/1 371/3/1 372/4/1
f 373/2/1 374/5/1 375/6/1 376/3/1
f 377/5/1 378/7/1 379/8/1 380/6/1
f 381/7/1 382/9/1 383/10/1 384/8/1
f 385/9/1 386/11/1 387/12/1 388/10/1
f 389/2/1 390/5/1 391/6/1 392/3/1
f 393/5/1 394/7/1 395/8/1 396/6/1
f 397/7/1 398/9/1 399/10/1 400/8/1
f 401/9/1 402/11/1 403/12/1 404/10/1
f 405/2/1 406/5/1 407/6/1 408/3/1
f 409/5/1 410/7/1 411/8/1 412/6/1
f 413/2/1 414/5/1 415/6/1 416/3/1
f 417/5/1 418/7/1 419/8/1 420/6/1
f 421/7/1 422/9/1 423/10/1 424/8/1
f 425/2/1 426/5/1 427/6/1 428/3/1
f 429/5/1 430/7/1 431/8/1 432/6/1
f 433/7/1 434/9/1 435/10/1 436/8/1
f 437/9/1 438/11/1 439/12/1 440/10/1
f 441/9/1 442/11/1 443/12/1 444/10/1
f 445/2/1 446/5/1 447/6/1 448/3/1
f 449/5/1 450/7/1 451/8/1 452/6/1
f 453/7/1 454/9/1 455/10/1 456/8/1
f 457/2/1 458/5/1 459/6/1 460/3/1
f 461/5/1 462/7/1 463/8/1 464/6/1
f 465/7/1 466/9/1 467/10/1 468/8/1
f 469/9/1 470/11/1 471/12/1 472/10/1
f 473/13/1 474/14/1 475/15/1 476/16/1
f 477/17/1 478/18/1 479/2/1 480/1/1
f 481/18/1 482/19/1 483/5/1 484/2/1
f 485/19/1 486/20/1 487/7/1 488/5/1
f 489/20/1 490/21/1 491/9/1 492/7/1
f 493/21/1 494/22/1 495/11/1 496/9/1
f 497/18/1 498/19/1 499/5/1 500/2/1
f 501/19/1 502/20/1 503/7/1 504/5/1
f 505/20/1 506/21/1 507/9/1 508/7/1
f 509/21/1 510/22/1 511/11/1 512/9/1
f 513/18/1 514/19/1 515/5/1 516/2/1
f 517/19/1 518/20/1 519/7/1 520/5/1
f 521/18/1 522/19/1 523/5/1 524/2/1
f 525/19/1 526/20/1 527/7/1 528/5/1
f 529/20/1 530/21/1 531/9/1 532/7/1
f 533/18/1 534/19/1 535/5/1 536/2/1
f 537/19/1 538/20/1 539/7/1 540/5/1
f 541/20/1 542/21/1 543/9/1 544/7/1
f 545/21/1 546/22/1 547/11/1 548/9/1
f 549/21/1 550/22/1 551/11/1 552/9/1
f 553/18/1 554/19/1 555/5/1 556/2/1
f 557/19/1 558/20/1 559/7/1 560/5/1
f 561/20/1 562/21/1 563/9/1 564/7/1
f 565/18/1 566/19/1 567/5/1 568/2/1
f 569/19/1 570/20/1 571/7/1 572/5/1
f 573/20/1 574/21/1 575/9/1 576/7/1
f 577/21/1 578/22/1 579/11/1 580/9/1
f 581/23/1 582/24/1 583/14/1 584/13/1
f 585/1/1 586/2/1 587/3/1 588/4/1
f 589/2/1 590/5/1 591/6/1 592/3/1
f 593/5/1 594/7/1 595/8/1 596/6/1
f 597/7/1 598/9/1 599/10/1 600/8/1
f 601/2/1 602/5/1 603/6/1 604/3/1
f 605/5/1 606/7/1 607/8/1 608/6/1
f 609/7/1 610/9/1 611/10/1 612/8/1
f 613/9/1 614/11/1 615/12/1 616/10/1
f 617/2/1 618/5/1 619/6/1 620/3/1
f 621/5/1 622/7/1 623/8/1 624/6/1
f 625/7/1 626/9/1 627/10/1 628/8/1
f 629/9/1 630/11/1 631/12/1 632/10/1
f 633/13/1 634/14/1 635/15/1 636/16/1
f 637/17/1 638/18/1 639/2/1 640/1/1
f 641/18/1 642/19/1 643/5/1 644/2/1
f 645/19/1 646/20/1 647/7/1 648/5/1
f 649/20/1 650/21/1 651/9/1 652/7/1
f 653/18/1 654/19/1 655/5/1 656/2/1
f 657/19/1 658/20/1 659/7/1 660/5/1
f 661/20/1 662/21/1 663/9/1 664/7/1
f 665/21/1 666/22/1 667/11/1 668/9/1
f 669/18/1 670/19/1 671/5/1 672/2/1
f 673/19/1 674/20/1 675/7/1 676/5/1
f 677/20/1 678/21/1 679/9/1 680/7/1
f 681/21/1 682/22/1 683/11/1 684/9/1
f 685/23/1 686/24/1 687/14/1 688/13/1
f 689/6/1 690/8/1 691/28/1 692/29/1
f 693/25/1 694/13/1 695/16/1 696/26/1
f 697/2/1 698/5/1 699/6/1 700/3/1
f 701/5/1 702/7/1 703/8/1 704/6/1
f 705/7/1 706/9/1 707/10/1 708/8/1
f 709/9/1 710/11/1 711/12/1 712/10/1
f 713/2/1 714/5/1 715/6/1 716/3/1
f 717/5/1 718/7/1 719/8/1 720/6/1
f 721/7/1 722/9/1 723/10/1 724/8/1
f 725/9/1 726/11/1 727/12/1 728/10/1
f 729/11/1 730/25/1 731/26/1 732/12/1
f 733/6/1 734/8/1 735/28/1 736/29/1
f 737/6/1 738/8/1 739/28/1 740/29/1
f 741/6/1 742/8/1 743/28/1 744/29/1
f 745/6/1 746/8/1 747/28/1 748/29/1
f 749/6/1 750/8/1 751/28/1 752/29/1
f 753/27/1 754/23/1 755/13/1 756/25/1
f 757/18/1 758/19/1 759/5/1 760/2/1
f 761/19/1 762/20/1 763/7/1 764/5/1
f 765/20/1 766/21/1 767/9/1 768/7/1
f 769/21/1 770/22/1 771/11/1 772/9/1
f 773/18/1 774/19/1 775/5/1 776/2/1
f 777/19/1 778/20/1 779/7/1 780/5/1
f 781/20/1 782/21/1 783/9/1 784/7/1
f 785/21/1 786/22/1 787/11/1 788/9/1
f 789/22/1 790/27/1 791/25/1 792/11/1
f 793/6/1 794/8/1 795/28/1 796/29/1
f 797/6/1 798/8/1 799/28/1 800/29/1
f 801/6/1 802/8/1 803/28/1 804/29/1
f 805/6/1 806/8/1 807/28/1 808/29/1
f 809/6/1 810/8/1 811/28/1 812/29/1
f 813/6/1 814/8/1 815/28/1 816/29/1
f 817/6/1 818/8/1 819/28/1 820/29/1
f 821/6/1 822/8/1 823/28/1 824/29/1

