# Tiled2Unity generated file. Do not modify by hand.
# Wavefront file for 'MidtermMap2_mesh_0003.obj'

# Vertices (Count = 272)
v -8 -25 0
v -9 -25 0
v -9 -24 0
v -8 -24 0
v -9 -25 0
v -10 -25 0
v -10 -24 0
v -9 -24 0
v -16 -25 0
v -17 -25 0
v -17 -24 0
v -16 -24 0
v -17 -25 0
v -18 -25 0
v -18 -24 0
v -17 -24 0
v -8 -26 0
v -9 -26 0
v -9 -25 0
v -8 -25 0
v -9 -26 0
v -10 -26 0
v -10 -25 0
v -9 -25 0
v -16 -26 0
v -17 -26 0
v -17 -25 0
v -16 -25 0
v -17 -26 0
v -18 -26 0
v -18 -25 0
v -17 -25 0
v -84 -28 0
v -85 -28 0
v -85 -27 0
v -84 -27 0
v -85 -28 0
v -86 -28 0
v -86 -27 0
v -85 -27 0
v -86 -28 0
v -87 -28 0
v -87 -27 0
v -86 -27 0
v -87 -28 0
v -88 -28 0
v -88 -27 0
v -87 -27 0
v -74 -29 0
v -75 -29 0
v -75 -28 0
v -74 -28 0
v -75 -29 0
v -76 -29 0
v -76 -28 0
v -75 -28 0
v -76 -29 0
v -77 -29 0
v -77 -28 0
v -76 -28 0
v -77 -29 0
v -78 -29 0
v -78 -28 0
v -77 -28 0
v -84 -29 0
v -85 -29 0
v -85 -28 0
v -84 -28 0
v -85 -29 0
v -86 -29 0
v -86 -28 0
v -85 -28 0
v -86 -29 0
v -87 -29 0
v -87 -28 0
v -86 -28 0
v -87 -29 0
v -88 -29 0
v -88 -28 0
v -87 -28 0
v -34 -30 0
v -35 -30 0
v -35 -29 0
v -34 -29 0
v -35 -30 0
v -36 -30 0
v -36 -29 0
v -35 -29 0
v -36 -30 0
v -37 -30 0
v -37 -29 0
v -36 -29 0
v -37 -30 0
v -38 -30 0
v -38 -29 0
v -37 -29 0
v -38 -30 0
v -39 -30 0
v -39 -29 0
v -38 -29 0
v -39 -30 0
v -40 -30 0
v -40 -29 0
v -39 -29 0
v -74 -30 0
v -75 -30 0
v -75 -29 0
v -74 -29 0
v -75 -30 0
v -76 -30 0
v -76 -29 0
v -75 -29 0
v -76 -30 0
v -77 -30 0
v -77 -29 0
v -76 -29 0
v -77 -30 0
v -78 -30 0
v -78 -29 0
v -77 -29 0
v -84 -30 0
v -85 -30 0
v -85 -29 0
v -84 -29 0
v -85 -30 0
v -86 -30 0
v -86 -29 0
v -85 -29 0
v -86 -30 0
v -87 -30 0
v -87 -29 0
v -86 -29 0
v -87 -30 0
v -88 -30 0
v -88 -29 0
v -87 -29 0
v -34 -31 0
v -35 -31 0
v -35 -30 0
v -34 -30 0
v -35 -31 0
v -36 -31 0
v -36 -30 0
v -35 -30 0
v -36 -31 0
v -37 -31 0
v -37 -30 0
v -36 -30 0
v -37 -31 0
v -38 -31 0
v -38 -30 0
v -37 -30 0
v -38 -31 0
v -39 -31 0
v -39 -30 0
v -38 -30 0
v -39 -31 0
v -40 -31 0
v -40 -30 0
v -39 -30 0
v -74 -31 0
v -75 -31 0
v -75 -30 0
v -74 -30 0
v -75 -31 0
v -76 -31 0
v -76 -30 0
v -75 -30 0
v -76 -31 0
v -77 -31 0
v -77 -30 0
v -76 -30 0
v -77 -31 0
v -78 -31 0
v -78 -30 0
v -77 -30 0
v -84 -31 0
v -85 -31 0
v -85 -30 0
v -84 -30 0
v -85 -31 0
v -86 -31 0
v -86 -30 0
v -85 -30 0
v -86 -31 0
v -87 -31 0
v -87 -30 0
v -86 -30 0
v -87 -31 0
v -88 -31 0
v -88 -30 0
v -87 -30 0
v -89 -31 0
v -90 -31 0
v -90 -30 0
v -89 -30 0
v -90 -31 0
v -91 -31 0
v -91 -30 0
v -90 -30 0
v -47 -32 0
v -48 -32 0
v -48 -31 0
v -47 -31 0
v -48 -32 0
v -49 -32 0
v -49 -31 0
v -48 -31 0
v -74 -32 0
v -75 -32 0
v -75 -31 0
v -74 -31 0
v -75 -32 0
v -76 -32 0
v -76 -31 0
v -75 -31 0
v -76 -32 0
v -77 -32 0
v -77 -31 0
v -76 -31 0
v -77 -32 0
v -78 -32 0
v -78 -31 0
v -77 -31 0
v -84 -32 0
v -85 -32 0
v -85 -31 0
v -84 -31 0
v -85 -32 0
v -86 -32 0
v -86 -31 0
v -85 -31 0
v -86 -32 0
v -87 -32 0
v -87 -31 0
v -86 -31 0
v -87 -32 0
v -88 -32 0
v -88 -31 0
v -87 -31 0
v -89 -32 0
v -90 -32 0
v -90 -31 0
v -89 -31 0
v -90 -32 0
v -91 -32 0
v -91 -31 0
v -90 -31 0
v -47 -33 0
v -48 -33 0
v -48 -32 0
v -47 -32 0
v -48 -33 0
v -49 -33 0
v -49 -32 0
v -48 -32 0
v -47 -34 0
v -48 -34 0
v -48 -33 0
v -47 -33 0
v -48 -34 0
v -49 -34 0
v -49 -33 0
v -48 -33 0
v -47 -35 0
v -48 -35 0
v -48 -34 0
v -47 -34 0
v -48 -35 0
v -49 -35 0
v -49 -34 0
v -48 -34 0

# Texture cooridinates (Count = 38)
vt 0.8 0.03333336
vt 0.8333333 0.03333336
vt 0.8333333 0.06666666
vt 0.8 0.06666666
vt 0.8666667 0.03333336
vt 0.8666667 0.06666666
vt 0.8 0
vt 0.8333333 0
vt 0.8666667 0
vt 0.8666667 0.2
vt 0.9 0.2
vt 0.9 0.2333333
vt 0.8666667 0.2333333
vt 0.9333333 0.2
vt 0.9333333 0.2333333
vt 0.9666666 0.2
vt 0.9666666 0.2333333
vt 1 0.2
vt 1 0.2333333
vt 0.8666667 0.1666667
vt 0.9 0.1666667
vt 0.9333333 0.1666667
vt 0.9666666 0.1666667
vt 1 0.1666667
vt 0.8666667 0.1333333
vt 0.9 0.1333333
vt 0.9333333 0.1333333
vt 0.9666666 0.1333333
vt 1 0.1333333
vt 0.8666667 0.1
vt 0.9 0.1
vt 0.9333333 0.1
vt 0.9666666 0.1
vt 1 0.1
vt 0.9 0.06666666
vt 0.9333333 0.06666666
vt 0.9666666 0.06666666
vt 1 0.06666666

# Normal
vn 0 0 -1

# Mesh description
g MidtermMap2_mesh_0003

# Faces
f 1/1/1 2/2/1 3/3/1 4/4/1
f 5/2/1 6/5/1 7/6/1 8/3/1
f 9/1/1 10/2/1 11/3/1 12/4/1
f 13/2/1 14/5/1 15/6/1 16/3/1
f 17/7/1 18/8/1 19/2/1 20/1/1
f 21/8/1 22/9/1 23/5/1 24/2/1
f 25/7/1 26/8/1 27/2/1 28/1/1
f 29/8/1 30/9/1 31/5/1 32/2/1
f 33/10/1 34/11/1 35/12/1 36/13/1
f 37/11/1 38/14/1 39/15/1 40/12/1
f 41/14/1 42/16/1 43/17/1 44/15/1
f 45/16/1 46/18/1 47/19/1 48/17/1
f 49/1/1 50/2/1 51/3/1 52/4/1
f 53/2/1 54/5/1 55/6/1 56/3/1
f 57/1/1 58/2/1 59/3/1 60/4/1
f 61/2/1 62/5/1 63/6/1 64/3/1
f 65/20/1 66/21/1 67/11/1 68/10/1
f 69/21/1 70/22/1 71/14/1 72/11/1
f 73/22/1 74/23/1 75/16/1 76/14/1
f 77/23/1 78/24/1 79/18/1 80/16/1
f 81/1/1 82/2/1 83/3/1 84/4/1
f 85/2/1 86/5/1 87/6/1 88/3/1
f 89/1/1 90/2/1 91/3/1 92/4/1
f 93/2/1 94/5/1 95/6/1 96/3/1
f 97/1/1 98/2/1 99/3/1 100/4/1
f 101/2/1 102/5/1 103/6/1 104/3/1
f 105/7/1 106/8/1 107/2/1 108/1/1
f 109/8/1 110/9/1 111/5/1 112/2/1
f 113/7/1 114/8/1 115/2/1 116/1/1
f 117/8/1 118/9/1 119/5/1 120/2/1
f 121/25/1 122/26/1 123/21/1 124/20/1
f 125/26/1 126/27/1 127/22/1 128/21/1
f 129/27/1 130/28/1 131/23/1 132/22/1
f 133/28/1 134/29/1 135/24/1 136/23/1
f 137/7/1 138/8/1 139/2/1 140/1/1
f 141/8/1 142/9/1 143/5/1 144/2/1
f 145/7/1 146/8/1 147/2/1 148/1/1
f 149/8/1 150/9/1 151/5/1 152/2/1
f 153/7/1 154/8/1 155/2/1 156/1/1
f 157/8/1 158/9/1 159/5/1 160/2/1
f 161/1/1 162/2/1 163/3/1 164/4/1
f 165/2/1 166/5/1 167/6/1 168/3/1
f 169/1/1 170/2/1 171/3/1 172/4/1
f 173/2/1 174/5/1 175/6/1 176/3/1
f 177/30/1 178/31/1 179/26/1 180/25/1
f 181/31/1 182/32/1 183/27/1 184/26/1
f 185/32/1 186/33/1 187/28/1 188/27/1
f 189/33/1 190/34/1 191/29/1 192/28/1
f 193/1/1 194/2/1 195/3/1 196/4/1
f 197/2/1 198/5/1 199/6/1 200/3/1
f 201/1/1 202/2/1 203/3/1 204/4/1
f 205/2/1 206/5/1 207/6/1 208/3/1
f 209/7/1 210/8/1 211/2/1 212/1/1
f 213/8/1 214/9/1 215/5/1 216/2/1
f 217/7/1 218/8/1 219/2/1 220/1/1
f 221/8/1 222/9/1 223/5/1 224/2/1
f 225/6/1 226/35/1 227/31/1 228/30/1
f 229/35/1 230/36/1 231/32/1 232/31/1
f 233/36/1 234/37/1 235/33/1 236/32/1
f 237/37/1 238/38/1 239/34/1 240/33/1
f 241/7/1 242/8/1 243/2/1 244/1/1
f 245/8/1 246/9/1 247/5/1 248/2/1
f 249/7/1 250/8/1 251/2/1 252/1/1
f 253/8/1 254/9/1 255/5/1 256/2/1
f 257/1/1 258/2/1 259/3/1 260/4/1
f 261/2/1 262/5/1 263/6/1 264/3/1
f 265/7/1 266/8/1 267/2/1 268/1/1
f 269/8/1 270/9/1 271/5/1 272/2/1

